<mxfile host="app.diagrams.net" agent="Mozilla/5.0 (X11; Linux x86_64; rv:132.0) Gecko/20100101 Firefox/132.0" version="25.0.3">
  <diagram id="Ht1M8jgEwFfnCIfOTk4-" name="Page-1">
    <mxGraphModel dx="1382" dy="798" grid="1" gridSize="10" guides="1" tooltips="1" connect="1" arrows="1" fold="1" page="1" pageScale="1" pageWidth="1169" pageHeight="827" math="0" shadow="0">
      <root>
        <mxCell id="0" />
        <mxCell id="1" parent="0" />
        <mxCell id="UEzPUAAOIrF-is8g5C7q-107" value="" style="rounded=0;whiteSpace=wrap;html=1;labelBackgroundColor=none;fillColor=none;dashed=1;container=1;pointerEvents=0;collapsible=0;recursiveResize=0;" parent="1" vertex="1">
          <mxGeometry x="140" width="300" height="380" as="geometry" />
        </mxCell>
        <mxCell id="UEzPUAAOIrF-is8g5C7q-77" value="Bucket" style="outlineConnect=0;fontColor=#232F3E;gradientColor=none;fillColor=#277116;strokeColor=none;dashed=0;verticalLabelPosition=bottom;verticalAlign=top;align=center;html=1;fontSize=12;fontStyle=0;aspect=fixed;pointerEvents=1;shape=mxgraph.aws4.bucket_with_objects;labelBackgroundColor=#ffffff;" parent="UEzPUAAOIrF-is8g5C7q-107" vertex="1">
          <mxGeometry x="100.00000000000001" y="248" width="75" height="78" as="geometry" />
        </mxCell>
        <mxCell id="si6G0FfqEptFClFJuE-w-3" value="" style="sketch=0;outlineConnect=0;fontColor=#232F3E;gradientColor=none;fillColor=#232F3D;strokeColor=none;dashed=0;verticalLabelPosition=bottom;verticalAlign=top;align=center;html=1;fontSize=12;fontStyle=0;aspect=fixed;pointerEvents=1;shape=mxgraph.aws4.traditional_server;" vertex="1" parent="UEzPUAAOIrF-is8g5C7q-107">
          <mxGeometry x="107" y="50" width="45" height="78" as="geometry" />
        </mxCell>
        <mxCell id="si6G0FfqEptFClFJuE-w-7" value="MinioS3" style="sketch=0;outlineConnect=0;fontColor=#232F3E;gradientColor=none;strokeColor=#ffffff;fillColor=#232F3E;dashed=0;verticalLabelPosition=middle;verticalAlign=bottom;align=center;html=1;whiteSpace=wrap;fontSize=10;fontStyle=1;spacing=3;shape=mxgraph.aws4.productIcon;prIcon=mxgraph.aws4.s3;" vertex="1" parent="UEzPUAAOIrF-is8g5C7q-107">
          <mxGeometry x="210" y="125" width="80" height="100" as="geometry" />
        </mxCell>
        <mxCell id="si6G0FfqEptFClFJuE-w-8" value="" style="image;aspect=fixed;html=1;points=[];align=center;fontSize=12;image=img/lib/azure2/general/File.svg;" vertex="1" parent="UEzPUAAOIrF-is8g5C7q-107">
          <mxGeometry x="40" y="160" width="26" height="32.04" as="geometry" />
        </mxCell>
        <mxCell id="si6G0FfqEptFClFJuE-w-9" style="edgeStyle=orthogonalEdgeStyle;rounded=0;orthogonalLoop=1;jettySize=auto;html=1;endArrow=open;endFill=0;strokeWidth=2;startArrow=classic;startFill=1;" edge="1" parent="UEzPUAAOIrF-is8g5C7q-107" source="si6G0FfqEptFClFJuE-w-7" target="UEzPUAAOIrF-is8g5C7q-77">
          <mxGeometry relative="1" as="geometry">
            <mxPoint x="148" y="258" as="sourcePoint" />
            <mxPoint x="-12" y="219" as="targetPoint" />
            <Array as="points">
              <mxPoint x="250" y="287" />
            </Array>
          </mxGeometry>
        </mxCell>
        <mxCell id="si6G0FfqEptFClFJuE-w-10" style="edgeStyle=orthogonalEdgeStyle;rounded=0;orthogonalLoop=1;jettySize=auto;html=1;endArrow=open;endFill=0;strokeWidth=2;startArrow=classic;startFill=1;" edge="1" parent="UEzPUAAOIrF-is8g5C7q-107" source="si6G0FfqEptFClFJuE-w-7" target="si6G0FfqEptFClFJuE-w-3">
          <mxGeometry relative="1" as="geometry">
            <mxPoint x="260" y="258" as="sourcePoint" />
            <mxPoint x="185" y="297" as="targetPoint" />
            <Array as="points">
              <mxPoint x="260" y="70" />
            </Array>
          </mxGeometry>
        </mxCell>
        <mxCell id="si6G0FfqEptFClFJuE-w-15" value="2" style="ellipse;whiteSpace=wrap;html=1;aspect=fixed;rotation=0;gradientColor=#223548;strokeColor=none;gradientDirection=east;fillColor=#5b738b;rounded=0;pointerEvents=0;fontFamily=Helvetica;fontSize=16;fontColor=#FFFFFF;spacingTop=4;spacingBottom=4;spacingLeft=4;spacingRight=4;points=[];fontStyle=1" vertex="1" parent="UEzPUAAOIrF-is8g5C7q-107">
          <mxGeometry x="235" y="30" width="30" height="30" as="geometry" />
        </mxCell>
        <mxCell id="si6G0FfqEptFClFJuE-w-17" value="3" style="ellipse;whiteSpace=wrap;html=1;aspect=fixed;rotation=0;gradientColor=#223548;strokeColor=none;gradientDirection=east;fillColor=#5b738b;rounded=0;pointerEvents=0;fontFamily=Helvetica;fontSize=16;fontColor=#FFFFFF;spacingTop=4;spacingBottom=4;spacingLeft=4;spacingRight=4;points=[];fontStyle=1" vertex="1" parent="UEzPUAAOIrF-is8g5C7q-107">
          <mxGeometry x="235" y="310" width="30" height="30" as="geometry" />
        </mxCell>
        <mxCell id="UEzPUAAOIrF-is8g5C7q-106" style="edgeStyle=orthogonalEdgeStyle;rounded=0;orthogonalLoop=1;jettySize=auto;html=1;endArrow=open;endFill=0;strokeWidth=2;startArrow=classic;startFill=1;" parent="1" source="UEzPUAAOIrF-is8g5C7q-77" target="si6G0FfqEptFClFJuE-w-2" edge="1">
          <mxGeometry relative="1" as="geometry">
            <mxPoint x="320" y="560" as="targetPoint" />
            <Array as="points">
              <mxPoint x="258" y="209" />
            </Array>
          </mxGeometry>
        </mxCell>
        <mxCell id="si6G0FfqEptFClFJuE-w-2" value="" style="sketch=0;outlineConnect=0;fontColor=#232F3E;gradientColor=none;fillColor=#232F3D;strokeColor=none;dashed=0;verticalLabelPosition=bottom;verticalAlign=top;align=center;html=1;fontSize=12;fontStyle=0;aspect=fixed;pointerEvents=1;shape=mxgraph.aws4.users;" vertex="1" parent="1">
          <mxGeometry x="20" y="170" width="78" height="78" as="geometry" />
        </mxCell>
        <mxCell id="si6G0FfqEptFClFJuE-w-6" style="edgeStyle=orthogonalEdgeStyle;rounded=0;orthogonalLoop=1;jettySize=auto;html=1;endArrow=open;endFill=0;strokeWidth=2;startArrow=classic;startFill=1;" edge="1" parent="1" source="si6G0FfqEptFClFJuE-w-2" target="si6G0FfqEptFClFJuE-w-3">
          <mxGeometry relative="1" as="geometry">
            <mxPoint x="230" y="319" as="sourcePoint" />
            <mxPoint x="69" y="258" as="targetPoint" />
            <Array as="points">
              <mxPoint x="60" y="69" />
            </Array>
          </mxGeometry>
        </mxCell>
        <mxCell id="si6G0FfqEptFClFJuE-w-11" style="edgeStyle=orthogonalEdgeStyle;rounded=0;orthogonalLoop=1;jettySize=auto;html=1;exitX=0.5;exitY=1;exitDx=0;exitDy=0;" edge="1" parent="1" source="UEzPUAAOIrF-is8g5C7q-107" target="UEzPUAAOIrF-is8g5C7q-107">
          <mxGeometry relative="1" as="geometry" />
        </mxCell>
        <mxCell id="si6G0FfqEptFClFJuE-w-13" value="1" style="ellipse;whiteSpace=wrap;html=1;aspect=fixed;rotation=0;gradientColor=#223548;strokeColor=none;gradientDirection=east;fillColor=#5b738b;rounded=0;pointerEvents=0;fontFamily=Helvetica;fontSize=16;fontColor=#FFFFFF;spacingTop=4;spacingBottom=4;spacingLeft=4;spacingRight=4;points=[];fontStyle=1" vertex="1" parent="1">
          <mxGeometry x="99" y="30" width="30" height="30" as="geometry" />
        </mxCell>
        <mxCell id="si6G0FfqEptFClFJuE-w-18" value="4" style="ellipse;whiteSpace=wrap;html=1;aspect=fixed;rotation=0;gradientColor=#223548;strokeColor=none;gradientDirection=east;fillColor=#5b738b;rounded=0;pointerEvents=0;fontFamily=Helvetica;fontSize=16;fontColor=#FFFFFF;spacingTop=4;spacingBottom=4;spacingLeft=4;spacingRight=4;points=[];fontStyle=1" vertex="1" parent="1">
          <mxGeometry x="98" y="227" width="30" height="30" as="geometry" />
        </mxCell>
        <mxCell id="si6G0FfqEptFClFJuE-w-19" style="edgeStyle=orthogonalEdgeStyle;rounded=0;orthogonalLoop=1;jettySize=auto;html=1;exitX=0.5;exitY=1;exitDx=0;exitDy=0;" edge="1" parent="1" source="UEzPUAAOIrF-is8g5C7q-107" target="UEzPUAAOIrF-is8g5C7q-107">
          <mxGeometry relative="1" as="geometry" />
        </mxCell>
      </root>
    </mxGraphModel>
  </diagram>
</mxfile>
